<svg viewBox="0 0 337 65" xmlns="http://www.w3.org/2000/svg">
    <g fill="none" fill-rule="evenodd">
        <g fill="#11110F">
            <path d="M144.956 27.504h-19.968a.933.933 0 0 0-.932.934v9.763c0 .514.417.934.932.934h7.79v12.129s-1.75.596-6.585.596c-5.705 0-13.674-2.084-13.674-19.609 0-17.528 8.299-19.834 16.09-19.834 6.744 0 9.648 1.186 11.498 1.76.58.177 1.118-.401 1.118-.917l2.227-9.432a.87.87 0 0 0-.356-.73C142.345 2.564 137.765 0 126.193 0 112.863 0 99.19 5.671 99.19 32.935c0 27.263 15.656 31.326 28.848 31.326 10.923 0 17.55-4.668 17.55-4.668.272-.15.302-.532.302-.707V28.438a.933.933 0 0 0-.933-.934M247.862 3.266a.93.93 0 0 0-.927-.938h-11.243a.934.934 0 0 0-.931.938l.003 21.728H217.24V3.266a.93.93 0 0 0-.928-.938H205.07a.934.934 0 0 0-.93.938V62.1c0 .52.418.941.93.941h11.242a.934.934 0 0 0 .928-.941V36.935h17.525l-.03 25.164c0 .52.416.941.93.941h11.27a.935.935 0 0 0 .928-.941V3.266M166.172 10.987c0-4.049-3.245-7.32-7.25-7.32-4 0-7.248 3.271-7.248 7.32 0 4.044 3.248 7.324 7.249 7.324 4.004 0 7.25-3.28 7.25-7.324M165.369 49.689V22.531a.935.935 0 0 0-.93-.937H153.23c-.513 0-.973.53-.973 1.046v38.908c0 1.143.712 1.484 1.634 1.484h10.098c1.108 0 1.38-.544 1.38-1.502V49.689M290.59 21.683h-11.156a.936.936 0 0 0-.928.94v28.848s-2.835 2.073-6.858 2.073c-4.022 0-5.09-1.825-5.09-5.764V22.623a.935.935 0 0 0-.928-.94h-11.324c-.51 0-.93.422-.93.94v27.062c0 11.7 6.522 14.563 15.492 14.563 7.36 0 13.293-4.066 13.293-4.066s.283 2.143.41 2.397c.128.253.461.509.821.509l7.204-.032c.51 0 .93-.423.93-.94l-.005-39.493a.936.936 0 0 0-.93-.94M316.684 53.509c-3.87-.118-6.495-1.874-6.495-1.874V33.004s2.59-1.587 5.767-1.871c4.017-.36 7.889.854 7.889 10.438 0 10.106-1.747 12.101-7.161 11.938zm4.4-33.148c-6.336 0-10.646 2.828-10.646 2.828V3.266a.932.932 0 0 0-.928-.938h-11.275a.933.933 0 0 0-.93.938V62.1c0 .52.417.941.931.941h7.823c.352 0 .619-.181.816-.499.195-.316.475-2.713.475-2.713s4.61 4.369 13.338 4.369c10.247 0 16.123-5.197 16.123-23.331 0-18.135-9.386-20.505-15.727-20.505zM197.682 21.589h-8.434l-.013-11.142c0-.422-.217-.632-.705-.632h-11.492c-.447 0-.687.196-.687.626v11.513s-5.76 1.39-6.15 1.503a.933.933 0 0 0-.672.897v7.235c0 .52.416.94.93.94h5.892v17.406c0 12.929 9.069 14.199 15.188 14.199 2.796 0 6.14-.898 6.693-1.102.334-.123.528-.47.528-.844l.01-7.959a.95.95 0 0 0-.932-.94c-.493 0-1.75.2-3.044.2-4.143 0-5.546-1.926-5.546-4.419V32.53h8.434c.514 0 .93-.42.93-.94v-9.063a.933.933 0 0 0-.93-.937" />
        </g>
        <path d="M.74 32.891c0 14.496 9.4 26.793 22.438 31.131 1.641.302 2.24-.71 2.24-1.58 0-.778-.029-2.843-.045-5.58-9.126 1.982-11.052-4.399-11.052-4.399-1.492-3.79-3.643-4.8-3.643-4.8-2.98-2.034.225-1.994.225-1.994 3.293.232 5.026 3.382 5.026 3.382 2.926 5.013 7.68 3.565 9.549 2.725.298-2.119 1.146-3.565 2.082-4.385-7.285-.828-14.945-3.643-14.945-16.216 0-3.581 1.28-6.512 3.378-8.804-.338-.83-1.464-4.167.322-8.683 0 0 2.754-.882 9.022 3.364 2.616-.73 5.424-1.092 8.214-1.106 2.787.014 5.593.377 8.213 1.106 6.264-4.246 9.014-3.364 9.014-3.364 1.79 4.516.664 7.853.328 8.683 2.103 2.292 3.372 5.223 3.372 8.804 0 12.605-7.672 15.378-14.98 16.19 1.177 1.013 2.226 3.015 2.226 6.077 0 4.385-.04 7.924-.04 9 0 .877.592 1.899 2.256 1.578 13.027-4.348 22.42-16.637 22.42-31.129C66.36 14.77 51.667.081 33.545.081 15.431.08.74 14.77.74 32.89z" fill="#161514" />
    </g>
</svg>
